<?xml version="1.0" encoding="utf-8"?>
<!-- Generator: Adobe Illustrator 23.0.4, SVG Export Plug-In . SVG Version: 6.00 Build 0)  -->
<svg version="1.1" id="Layer_1" xmlns="http://www.w3.org/2000/svg" xmlns:xlink="http://www.w3.org/1999/xlink" x="0px" y="0px"
	 viewBox="0 0 135 40" style="enable-background:new 0 0 135 40;" xml:space="preserve">
<style type="text/css">
	.st0{fill-rule:evenodd;clip-rule:evenodd;fill:#FFFFFF;}
</style>
<g>
	<g>
		<path class="st0" d="M23.6,40h9.3l-9.3-14.4C23.6,25.6,23.6,40,23.6,40z M0,0v40h17V15h6.6l9.3,13.9V15H40V0H0z"/>
	</g>
</g>
<g>
	<g>
		<path class="st0" d="M47,40h22.3v-2.4H49.9v-9.1h15.9V26H49.9v-8.5h19.4V15H47V40z M77.5,17.4h11.7V40h2.9V17.4H104V15H77.5V17.4z
			 M134.2,17.4V15h-22.3v25h22.3v-2.4h-19.4v-9.1h15.9V26h-15.9v-8.5h19.4V17.4z"/>
	</g>
</g>
</svg>
