<?xml version="1.0" encoding="utf-8"?>
<!-- Generator: Adobe Illustrator 23.0.4, SVG Export Plug-In . SVG Version: 6.00 Build 0)  -->
<svg version="1.1" id="Layer_1" xmlns="http://www.w3.org/2000/svg" xmlns:xlink="http://www.w3.org/1999/xlink" x="0px" y="0px"
	 viewBox="0 0 100 35.04802" style="enable-background:new 0 0 100 35.04802;" xml:space="preserve">
<title>Glasses</title>
<path d="M50,11.4984c1.51091,0.37516,2.76186,1.43082,3.38571,2.85714c3.38572,10.92857,4.28572,11.17143,8.57143,16.05714
	s17.14285,6.27143,25.97143,2.38571c8.82858-3.88571,9.75713-20.98571,9.75713-20.98571L100,9.35554V1.6984
	c-7.42857-2.34286-29.84286-2.62857-44.54286,1.5c-3.58546,0.37511-7.20026,0.37511-10.78571,0
	C29.32857-1.04446,7.14286-0.53017,0,1.6984v7.65714l2.31429,2.45714c0,0,1.01428,17.14286,9.78571,21
	s21.71428,2.51428,25.98571-2.42857s5.14286-5.14285,8.57143-16.05714C47.2791,12.92167,48.51114,11.87917,50,11.4984z
	 M83.49999,31.4984c-8.78571,2.12858-18.07143,0.87143-21.82857-6.02857c-3.75714-6.9-4.64286-14.18571-1.88571-16.81429
	c0,0,2.85714-3.64286,10.78572-4.14286s19.71428-1.68571,22.28571,5.34287c2.57143,7.02857-0.57143,19.57143-9.35715,21.7V31.4984z
	 M7.14286,9.85554c2.51429-7.02857,14.28572-5.71429,22.21428-5.27143c7.92857,0.44286,10.78572,4.14286,10.78572,4.14286
	c2.75714,2.62857,1.88571,9.91428-1.88572,16.81429s-13.04286,8.15714-21.82857,6.02857S4.7,16.88411,7.14286,9.85554z"/>
</svg>
