<?xml version="1.0" encoding="utf-8"?>
<!-- Generator: Adobe Illustrator 23.1.1, SVG Export Plug-In . SVG Version: 6.00 Build 0)  -->
<svg version="1.1" id="Layer_1" xmlns="http://www.w3.org/2000/svg" xmlns:xlink="http://www.w3.org/1999/xlink" x="0px" y="0px"
	 viewBox="0 0 100 100" style="enable-background:new 0 0 100 100;" xml:space="preserve">
<style type="text/css">
	.st0{opacity:0.25;fill:#FFFFFF;}
	.st1{fill:#FFFFFF;}
</style>
<path class="st0" d="M50,0C22.3,0,0,22.3,0,50s22.3,50,50,50s50-22.3,50-50S77.7,0,50,0L50,0z"/>
<path class="st1" d="M41.2,38.9c2.2,0,4-1.8,4-4s-1.8-4-4-4s-4,1.8-4,4C37.2,37,39,38.9,41.2,38.9L41.2,38.9z M64.1,67.9v-4.1H35.9
	v4.1H64.1z M72.2,33.1H60.4V21.3L72.2,33.1z M73.7,79.1c0,0.6-0.4,1-1,1H27.3c-0.6,0-1-0.4-1-1V21c0-0.6,0.4-1,1-1h28.2v17.2
	c0,0.6,0.4,1,1,1h17.2V79.1C73.7,79.1,73.7,79.1,73.7,79.1z M64.1,49.1v-4H35.9v4H64.1z M64.1,58.6v-4.1H35.9v4.1H64.1z"/>
</svg>
