<?xml version="1.0" encoding="utf-8"?>
<!-- Generator: Adobe Illustrator 23.1.1, SVG Export Plug-In . SVG Version: 6.00 Build 0)  -->
<svg version="1.1" id="Layer_1" xmlns="http://www.w3.org/2000/svg" xmlns:xlink="http://www.w3.org/1999/xlink" x="0px" y="0px"
	 viewBox="0 0 100 100" style="enable-background:new 0 0 100 100;" xml:space="preserve">
<style type="text/css">
	.st0{opacity:0.25;fill:#FFFFFF;}
	.st1{fill:#FFFFFF;}
</style>
<path class="st0" d="M50,0C22.3,0,0,22.3,0,50s22.3,50,50,50s50-22.3,50-50S77.7,0,50,0L50,0z"/>
<path class="st1" d="M63.3,28.8H53.1V18.7L63.3,28.8z M23.6,68.4l-0.1-50.1c0-0.6,0.4-1,1-1h24.2v13.6c0,1.2,1,2.2,2.2,2.2h13.6
	v35.3c0,0.6-0.4,1-1,1h-39C23.9,69.4,23.6,69,23.6,68.4L23.6,68.4z M75.1,79c0,0.6-0.4,1-1,1H35c-0.6,0-1-0.4-1-1v-5.9h32
	c1.2,0,2.1-1,2.1-2.2V51.8H74c0.6,0,1,0.4,1,1v20.4L75.1,79L75.1,79z M29.2,61.4c0,1.3,1.1,2.4,2.4,2.4c1.3,0,2.4-1.1,2.4-2.4
	c0-1.3-1.1-2.4-2.4-2.4C30.2,59.1,29.2,60.1,29.2,61.4L29.2,61.4z M54.1,61.4c0,1.3,1.1,2.4,2.4,2.4s2.4-1.1,2.4-2.4
	c0-1.3-1.1-2.4-2.4-2.4C55.1,59.1,54.1,60.1,54.1,61.4L54.1,61.4z M37.6,61.4c0,1.3,1.1,2.4,2.4,2.4s2.4-1.1,2.4-2.4
	c0-1.3-1.1-2.4-2.4-2.4C38.6,59.1,37.6,60.1,37.6,61.4L37.6,61.4z M45.8,61.4c0,1.3,1.1,2.4,2.4,2.4c1.3,0,2.4-1.1,2.4-2.4
	c0-1.3-1.1-2.4-2.4-2.4C46.8,59.1,45.8,60.1,45.8,61.4z"/>
</svg>
